/* XPM */
static char *_1825a773e3f4e609b97fe3c9e790bf28u0EIPHQrdHXSaRs[] = {
/* columns rows colors chars-per-pixel */
"4 4 3 1 ",
"y c #fcba03",
"b c #0800ff",
"r c #ff0000",

/* pixels */
"rbyb",
"byby",
"ybyb",
"byby"
};
